/* XPM */
static char * tuxjunior_editor_xpm[] = {
"32 32 737 2",
"  	c None",
". 	c #238CCC",
"+ 	c #1A6595",
"@ 	c #18618D",
"# 	c #1E77AE",
"$ 	c #1F7CB6",
"% 	c #1F7DB7",
"& 	c #207DB6",
"* 	c #1D6592",
"= 	c #164560",
"- 	c #15343F",
"; 	c #152C2F",
"> 	c #0C1C23",
", 	c #152A32",
"' 	c #1B3742",
") 	c #1D3B46",
"! 	c #1E404D",
"~ 	c #152B35",
"{ 	c #0E232E",
"] 	c #0B2432",
"^ 	c #0A2434",
"/ 	c #0F3C58",
"( 	c #144D70",
"_ 	c #18577C",
": 	c #1E74AA",
"< 	c #66898D",
"[ 	c #577477",
"} 	c #273739",
"| 	c #293026",
"1 	c #545019",
"2 	c #676013",
"3 	c #5A5012",
"4 	c #4A3E13",
"5 	c #4E3E15",
"6 	c #4F3E14",
"7 	c #665814",
"8 	c #6D6214",
"9 	c #69621A",
"0 	c #544D20",
"a 	c #453B18",
"b 	c #3F3211",
"c 	c #29210D",
"d 	c #2D2E10",
"e 	c #404B1B",
"f 	c #273E2E",
"g 	c #11415C",
"h 	c #135074",
"i 	c #4A584E",
"j 	c #31250E",
"k 	c #272009",
"l 	c #584D0D",
"m 	c #8B7D13",
"n 	c #9E9115",
"o 	c #9B8E16",
"p 	c #9F9417",
"q 	c #A29619",
"r 	c #79671E",
"s 	c #69531F",
"t 	c #867519",
"u 	c #9F9514",
"v 	c #837C0E",
"w 	c #54490D",
"x 	c #786D11",
"y 	c #857814",
"z 	c #867B16",
"A 	c #968B13",
"B 	c #AAA311",
"C 	c #888112",
"D 	c #514E0C",
"E 	c #21250F",
"F 	c #17323E",
"G 	c #3E7087",
"H 	c #214455",
"I 	c #251D0E",
"J 	c #363007",
"K 	c #837B10",
"L 	c #91821A",
"M 	c #8E7E2B",
"N 	c #79672B",
"O 	c #76671A",
"P 	c #8B8318",
"Q 	c #746A1B",
"R 	c #4C3E1E",
"S 	c #46381E",
"T 	c #5A4B29",
"U 	c #493E1A",
"V 	c #231E0C",
"W 	c #141005",
"X 	c #2B2906",
"Y 	c #322F09",
"Z 	c #494314",
"` 	c #6F661F",
" .	c #918C1E",
"..	c #82741B",
"+.	c #7A6A16",
"@.	c #726710",
"#.	c #3B360A",
"$.	c #3B3318",
"%.	c #967745",
"&.	c #7D9894",
"*.	c #1B333D",
"=.	c #413908",
"-.	c #8F8713",
";.	c #A49B16",
">.	c #67592B",
",.	c #473D30",
"'.	c #181206",
").	c #140E02",
"!.	c #130F02",
"~.	c #171203",
"{.	c #201A10",
"].	c #120F09",
"^.	c #110D05",
"/.	c #1C170B",
"(.	c #1D180D",
"_.	c #271F0F",
":.	c #292113",
"<.	c #0D0A04",
"[.	c #0C0902",
"}.	c #100C06",
"|.	c #3A2F1D",
"1.	c #574726",
"2.	c #4F4423",
"3.	c #726919",
"4.	c #B2AB15",
"5.	c #9F9E12",
"6.	c #5F5810",
"7.	c #577470",
"8.	c #2274A4",
"9.	c #253028",
"0.	c #625911",
"a.	c #8E8417",
"b.	c #5D5810",
"c.	c #1E190E",
"d.	c #151008",
"e.	c #120D04",
"f.	c #191306",
"g.	c #1B1407",
"h.	c #1D1709",
"i.	c #32291A",
"j.	c #201A0D",
"k.	c #231B0A",
"l.	c #312714",
"m.	c #29210E",
"n.	c #322917",
"o.	c #2A2111",
"p.	c #2C230D",
"q.	c #332914",
"r.	c #2A210E",
"s.	c #261F10",
"t.	c #271F0E",
"u.	c #2A240A",
"v.	c #797316",
"w.	c #8B891D",
"x.	c #6E6E0C",
"y.	c #557761",
"z.	c #424C47",
"A.	c #473F25",
"B.	c #262313",
"C.	c #16130C",
"D.	c #161108",
"E.	c #151003",
"F.	c #211908",
"G.	c #281F09",
"H.	c #36290C",
"I.	c #3E3012",
"J.	c #352A12",
"K.	c #241D0C",
"L.	c #3E3016",
"M.	c #625236",
"N.	c #514124",
"O.	c #4B3E27",
"P.	c #201A0E",
"Q.	c #483A1D",
"R.	c #604E2A",
"S.	c #504021",
"T.	c #4C3E21",
"U.	c #4C3D21",
"V.	c #392C0F",
"W.	c #231C10",
"X.	c #100F0B",
"Y.	c #101212",
"Z.	c #3B2F11",
"`.	c #467B89",
" +	c #506565",
".+	c #342A1B",
"++	c #060605",
"@+	c #252114",
"#+	c #3B361E",
"$+	c #352A10",
"%+	c #231A08",
"&+	c #2E2208",
"*+	c #3C2F0E",
"=+	c #42320E",
"-+	c #362A0F",
";+	c #2D230E",
">+	c #382B0F",
",+	c #534427",
"'+	c #5C4B2A",
")+	c #47391B",
"!+	c #312816",
"~+	c #473A21",
"{+	c #403318",
"]+	c #372D1B",
"^+	c #392F1D",
"/+	c #514328",
"(+	c #332D1F",
"_+	c #050403",
":+	c #0B0703",
"<+	c #2A4047",
"[+	c #2B7FB2",
"}+	c #223E4C",
"|+	c #2E210B",
"1+	c #463514",
"2+	c #475041",
"3+	c #342A16",
"4+	c #261E0B",
"5+	c #3A2F19",
"6+	c #473A1C",
"7+	c #291F0A",
"8+	c #141003",
"9+	c #0B0903",
"0+	c #0B0804",
"a+	c #17130D",
"b+	c #1B170F",
"c+	c #1D170E",
"d+	c #0D0A07",
"e+	c #060502",
"f+	c #0D0B0A",
"g+	c #3C342A",
"h+	c #5A4D3A",
"i+	c #534839",
"j+	c #323029",
"k+	c #070604",
"l+	c #040C10",
"m+	c #185C87",
"n+	c #2175A9",
"o+	c #0B293D",
"p+	c #0E0E09",
"q+	c #241B08",
"r+	c #3B4A46",
"s+	c #4B3D23",
"t+	c #19140A",
"u+	c #282113",
"v+	c #3C3322",
"w+	c #645B4C",
"x+	c #6B614E",
"y+	c #4C4536",
"z+	c #494338",
"A+	c #3F382F",
"B+	c #24201D",
"C+	c #302E2A",
"D+	c #282725",
"E+	c #4A4847",
"F+	c #7E7976",
"G+	c #CEC0B6",
"H+	c #C9B4A3",
"I+	c #736452",
"J+	c #34342D",
"K+	c #191307",
"L+	c #1A4359",
"M+	c #206A97",
"N+	c #161D1E",
"O+	c #363223",
"P+	c #443F2A",
"Q+	c #2E2511",
"R+	c #161206",
"S+	c #2F281A",
"T+	c #868077",
"U+	c #F2F1F0",
"V+	c #F7F5F3",
"W+	c #E8E3DD",
"X+	c #E8E0D7",
"Y+	c #EDE8E3",
"Z+	c #E9E7E6",
"`+	c #EEEEED",
" @	c #EFEFEE",
".@	c #F5F4F3",
"+@	c #FAF8F7",
"@@	c #F6EEEA",
"#@	c #EBDCD0",
"$@	c #A6927C",
"%@	c #3A362F",
"&@	c #271F0D",
"*@	c #453B28",
"=@	c #8B8D76",
"-@	c #24475A",
";@	c #2E2211",
">@	c #637D81",
",@	c #6D5F3D",
"'@	c #2F2409",
")@	c #271E09",
"!@	c #5A5246",
"~@	c #D1CBC4",
"{@	c #FBF7F5",
"]@	c #FAF6F3",
"^@	c #FBF8F6",
"/@	c #FDFCFC",
"(@	c #FEFDFD",
"_@	c #FDFCFB",
":@	c #F7F1ED",
"<@	c #F6EEE9",
"[@	c #F3E9E2",
"}@	c #C0AD9A",
"|@	c #4E4335",
"1@	c #2E2B21",
"2@	c #1D1C16",
"3@	c #92662D",
"4@	c #6E9CA8",
"5@	c #236F9D",
"6@	c #171F1F",
"7@	c #2F3530",
"8@	c #909B97",
"9@	c #66532C",
"0@	c #2E2207",
"a@	c #403110",
"b@	c #675D4D",
"c@	c #C8C3BF",
"d@	c #F7F0EC",
"e@	c #FBF9F6",
"f@	c #FBF9F8",
"g@	c #ECEAE9",
"h@	c #FAF8F6",
"i@	c #FCFAF9",
"j@	c #F0EEED",
"k@	c #D3CFCC",
"l@	c #F1EDEA",
"m@	c #FCF9F7",
"n@	c #FAF5F2",
"o@	c #C4B7AB",
"p@	c #3E362C",
"q@	c #2D2720",
"r@	c #2B2621",
"s@	c #322C1F",
"t@	c #888365",
"u@	c #1E5372",
"v@	c #1A1309",
"w@	c #474F44",
"x@	c #9A825C",
"y@	c #5D4A23",
"z@	c #2F2308",
"A@	c #3F3010",
"B@	c #433B2D",
"C@	c #95918E",
"D@	c #F7F2EE",
"E@	c #F8F2EE",
"F@	c #F7F4F0",
"G@	c #C4C2C0",
"H@	c #666463",
"I@	c #BBB9B7",
"J@	c #F0EFEE",
"K@	c #8F8F8F",
"L@	c #464645",
"M@	c #AAAAA9",
"N@	c #FEFDFC",
"O@	c #FDF9F7",
"P@	c #AFA399",
"Q@	c #2F2921",
"R@	c #1F1A13",
"S@	c #40382F",
"T@	c #242C2B",
"U@	c #85744F",
"V@	c #40A9E4",
"W@	c #305869",
"X@	c #1C1D17",
"Y@	c #777260",
"Z@	c #98815D",
"`@	c #4D3C1A",
" #	c #32260A",
".#	c #372A0E",
"+#	c #262015",
"@#	c #5B5752",
"##	c #EAE6E3",
"$#	c #F9F4F1",
"%#	c #D9D7D5",
"&#	c #4C4C4B",
"*#	c #020202",
"=#	c #323132",
"-#	c #B1B0B0",
";#	c #242424",
">#	c #010101",
",#	c #282827",
"'#	c #DFDFDF",
")#	c #EFEDE8",
"!#	c #867A6B",
"~#	c #1F1A11",
"{#	c #1C1507",
"]#	c #423726",
"^#	c #1E2625",
"/#	c #6E6043",
"(#	c #42AAE5",
"_#	c #294551",
":#	c #1D2625",
"<#	c #737667",
"[#	c #7A643B",
"}#	c #3A2C0E",
"|#	c #34270B",
"1#	c #2C210A",
"2#	c #2A2213",
"3#	c #1D1A15",
"4#	c #6B665E",
"5#	c #BFB8AF",
"6#	c #E1DEDB",
"7#	c #6E6E6E",
"8#	c #040404",
"9#	c #2C2C2D",
"0#	c #B3B3B2",
"a#	c #343434",
"b#	c #333232",
"c#	c #E7E7E6",
"d#	c #C7C0B5",
"e#	c #433927",
"f#	c #151007",
"g#	c #2A200B",
"h#	c #2B2E22",
"i#	c #6D5F42",
"j#	c #478DB0",
"k#	c #2A312E",
"l#	c #353934",
"m#	c #786339",
"n#	c #544117",
"o#	c #35290D",
"p#	c #261E0D",
"q#	c #201909",
"r#	c #44371E",
"s#	c #312918",
"t#	c #1A160D",
"u#	c #2A261E",
"v#	c #5A554E",
"w#	c #8B8885",
"x#	c #787877",
"y#	c #C2C2C2",
"z#	c #F3F3F3",
"A#	c #CECECE",
"B#	c #8E8E8D",
"C#	c #D3D3D2",
"D#	c #E0DBD2",
"E#	c #8D7F62",
"F#	c #2F2714",
"G#	c #0C0904",
"H#	c #30250E",
"I#	c #4D3E1F",
"J#	c #303024",
"K#	c #6E5530",
"L#	c #4AA9DD",
"M#	c #243031",
"N#	c #495353",
"O#	c #947F5D",
"P#	c #836D49",
"Q#	c #51411E",
"R#	c #403218",
"S#	c #392D15",
"T#	c #493915",
"U#	c #4C3C18",
"V#	c #2E240F",
"W#	c #141009",
"X#	c #1C180F",
"Y#	c #25211A",
"Z#	c #393836",
"`#	c #5C5B5A",
" $	c #9E9D9C",
".$	c #BDBBB7",
"+$	c #C8C6C5",
"@$	c #BEBAB2",
"#$	c #827562",
"$$	c #53462E",
"%$	c #19150B",
"&$	c #463612",
"*$	c #46381B",
"=$	c #423829",
"-$	c #744C1A",
";$	c #5CA7CB",
">$	c #323833",
",$	c #4A5A60",
"'$	c #A99478",
")$	c #907950",
"!$	c #624E20",
"~$	c #33280F",
"{$	c #473A20",
"]$	c #5E4D2B",
"^$	c #4F3F1E",
"/$	c #5B4A28",
"($	c #33280D",
"_$	c #3B2F16",
":$	c #392F1B",
"<$	c #271F11",
"[$	c #1F1B12",
"}$	c #201B11",
"|$	c #16120C",
"1$	c #130F05",
"2$	c #130F06",
"3$	c #2A210F",
"4$	c #3E2F0E",
"5$	c #4B3B12",
"6$	c #443822",
"7$	c #6F4B1B",
"8$	c #5BA2C3",
"9$	c #3B433C",
"0$	c #506062",
"a$	c #9F8A6B",
"b$	c #80693C",
"c$	c #534117",
"d$	c #3C3014",
"e$	c #493B22",
"f$	c #31291D",
"g$	c #1B1509",
"h$	c #433826",
"i$	c #776449",
"j$	c #4C3B16",
"k$	c #503F1B",
"l$	c #5E4B28",
"m$	c #564521",
"n$	c #63543B",
"o$	c #53452C",
"p$	c #36290F",
"q$	c #4A3B1F",
"r$	c #564627",
"s$	c #50401C",
"t$	c #503E14",
"u$	c #513F16",
"v$	c #5E4E32",
"w$	c #5D5241",
"x$	c #6B4A1D",
"y$	c #599FBE",
"z$	c #2E3C3D",
"A$	c #4D5855",
"B$	c #9B8665",
"C$	c #7D673B",
"D$	c #52401A",
"E$	c #574627",
"F$	c #322919",
"G$	c #14100A",
"H$	c #2A200E",
"I$	c #241C0D",
"J$	c #372D20",
"K$	c #554525",
"L$	c #695633",
"M$	c #776340",
"N$	c #614F2A",
"O$	c #776442",
"P$	c #8A7556",
"Q$	c #756242",
"R$	c #655439",
"S$	c #58492C",
"T$	c #85735B",
"U$	c #9D886A",
"V$	c #988261",
"W$	c #614D22",
"X$	c #6A5732",
"Y$	c #60553D",
"Z$	c #66491E",
"`$	c #579DBC",
" %	c #2A393B",
".%	c #414844",
"+%	c #8D7753",
"@%	c #816B41",
"#%	c #594620",
"$%	c #5A4924",
"%%	c #5D4D31",
"&%	c #5D4E36",
"*%	c #4C3C1B",
"=%	c #151005",
"-%	c #3C321D",
";%	c #655438",
">%	c #473A23",
",%	c #3F3424",
"'%	c #665845",
")%	c #7F6F5B",
"!%	c #3D352A",
"~%	c #3C3224",
"{%	c #3D3427",
"]%	c #6D5E4C",
"^%	c #AE987E",
"/%	c #7C673E",
"(%	c #6C5831",
"_%	c #5C533B",
":%	c #56411F",
"<%	c #5496B4",
"[%	c #2F8BBE",
"}%	c #4D5247",
"|%	c #464840",
"1%	c #958060",
"2%	c #7F6A41",
"3%	c #5F4C27",
"4%	c #5C4A23",
"5%	c #655126",
"6%	c #59471F",
"7%	c #52411A",
"8%	c #483919",
"9%	c #1F1808",
"0%	c #1F1809",
"a%	c #221B0C",
"b%	c #2D2413",
"c%	c #3D311C",
"d%	c #1C160B",
"e%	c #241E11",
"f%	c #443A29",
"g%	c #675535",
"h%	c #604D28",
"i%	c #5F4C23",
"j%	c #77643F",
"k%	c #89724B",
"l%	c #755F31",
"m%	c #514E41",
"n%	c #534023",
"o%	c #4F99BE",
"p%	c #2D8AC2",
"q%	c #4B4F44",
"r%	c #46463E",
"s%	c #9C896D",
"t%	c #85704B",
"u%	c #685530",
"v%	c #614D23",
"w%	c #544015",
"x%	c #594517",
"y%	c #6A5425",
"z%	c #604C20",
"A%	c #5E4B20",
"B%	c #493A17",
"C%	c #453716",
"D%	c #614F2C",
"E%	c #67542C",
"F%	c #745F36",
"G%	c #4F4022",
"H%	c #3F3217",
"I%	c #5F4F32",
"J%	c #68542B",
"K%	c #6D592F",
"L%	c #6C572D",
"M%	c #604D24",
"N%	c #5F4C25",
"O%	c #776036",
"P%	c #313C37",
"Q%	c #614825",
"R%	c #4DA1CB",
"S%	c #5F716B",
"T%	c #251C0E",
"U%	c #4A4D4A",
"V%	c #B29F8F",
"W%	c #B6A28D",
"X%	c #897454",
"Y%	c #725D36",
"Z%	c #816A3C",
"`%	c #897246",
" &	c #81693C",
".&	c #7F683A",
"+&	c #7A6336",
"@&	c #8C7551",
"#&	c #826C3F",
"$&	c #897247",
"%&	c #7D673C",
"&&	c #7C6742",
"*&	c #A08A6B",
"=&	c #927D60",
"-&	c #9A866C",
";&	c #907A5B",
">&	c #867455",
",&	c #8B816C",
"'&	c #332A19",
")&	c #595745",
"!&	c #5E9CB5",
"~&	c #595541",
"{&	c #332816",
"]&	c #393630",
"^&	c #50666F",
"/&	c #958779",
"(&	c #998D7E",
"_&	c #A49C8B",
":&	c #AA9678",
"<&	c #9F8660",
"[&	c #AD9472",
"}&	c #AF9574",
"|&	c #B39A7B",
"1&	c #A99170",
"2&	c #B0997E",
"3&	c #A7927C",
"4&	c #9C8771",
"5&	c #968370",
"6&	c #978578",
"7&	c #A08D7E",
"8&	c #B7A79A",
"9&	c #A69B8E",
"0&	c #9D8D7B",
"a&	c #687673",
"b&	c #4B483A",
"c&	c #2C2213",
"d&	c #2C6787",
"e&	c #617A79",
"f&	c #504F3F",
"g&	c #4D3F27",
"h&	c #23241C",
"i&	c #30332A",
"j&	c #354A4F",
"k&	c #5D5F59",
"l&	c #767C78",
"m&	c #818B8A",
"n&	c #79817A",
"o&	c #70756E",
"p&	c #676864",
"q&	c #4F4D48",
"r&	c #454947",
"s&	c #585C59",
"t&	c #58564F",
"u&	c #413D36",
"v&	c #372F24",
"w&	c #3B3930",
"x&	c #212825",
"y&	c #1F1F17",
"z&	c #242A28",
"A&	c #1C3038",
"B&	c #224F68",
"C&	c #5F8792",
"D&	c #4E717B",
"E&	c #366174",
"F&	c #3C4F50",
"G&	c #3A423D",
"H&	c #30352F",
"I&	c #2B2E28",
"J&	c #373A32",
"K&	c #343F3C",
"L&	c #2B3431",
"M&	c #313730",
"N&	c #3D4843",
"O&	c #4E5952",
"P&	c #596054",
"Q&	c #545A4F",
"R&	c #676753",
"S&	c #6E7363",
"T&	c #5A7374",
"U&	c #536A6B",
"V&	c #25709C",
"W&	c #2079B0",
"X&	c #2984BB",
"Y&	c #2582BB",
"Z&	c #2783BB",
"`&	c #2E96D3",
" *	c #307DA3",
"                                                                ",
". + @ #               $         % &                             ",
"              * = - ; > , ' ) ! ~ { ] ^ / ( _ :                 ",
"        < [ } | 1 2 3 4 5 6 7 8 9 0 a b c d e f g h             ",
"      i j k l m n o p q r s t u v w x y z A B C D E F G         ",
"    H I J K L M N O P Q R S T U V W X Y Z `  ...+.@.#.$.%.&.    ",
"    *.=.-.;.>.,.'.).!.~.{.].^./.(._.:.<.[.}.|.1.2.3.4.5.6.7.    ",
"  8.9.0.a.b.c.d.e.f.g.h.i.j.k.l.m.n.o.p.q.r.s.t.k.u.v.w.x.y.    ",
"    z.A.B.C.D.E.F.G.H.I.J.K.L.M.N.O.P.Q.R.S.T.U.V.W.X.Y.Z.`.    ",
"     +.+++@+#+$+%+&+*+=+-+;+>+,+'+)+!+~+{+]+^+/+1.(+_+:+<+      ",
"    [+}+_+|+1+2+3+4+5+6+7+8+9+0+a+b+c+d+e+f+g+h+i+j+k+l+m+      ",
"      n+o+p+q+r+s+t+u+v+w+x+y+z+A+B+C+D+E+F+G+H+I+J+K+L+        ",
"        M+N+O+P+Q+R+S+T+U+V+W+X+Y+Z+`+ @.@+@@@#@$@%@&@*@=@      ",
"        -@;@>@,@'@)@!@~@{@]@]@^@/@(@/@_@{@:@<@[@}@|@1@2@3@4@    ",
"      5@6@7@8@9@0@a@b@c@:@d@e@f@g@h@i@j@k@l@m@n@o@p@q@r@s@t@    ",
"      u@v@w@x@y@z@A@B@C@D@E@F@G@H@I@J@K@L@M@N@O@P@Q@R@S@T@U@V@  ",
"      W@X@Y@Z@`@ #.#+#@###$#%#&#*#=#-#;#>#,#'#)#!#~#{#]#^#/#(#  ",
"      _#:#<#[#}#|#1#2#3#4#5#6#7#8#9#0#a#>#b#c#d#e#f#g#|.h#i#(#  ",
"    j#k#l#m#n#o#p#q#r#s#t#u#v#w#x#y#z#A#B#C#D#E#F#G#H#I#J#K#L#  ",
"      M#N#O#P#Q#R#S#T#U#V#W#X#Y#Z#`# $.$+$@$#$$$%${#&$*$=$-$;$  ",
"      >$,$'$)$!$~${$]$^$/$r#($_$:$<$[$}$|$1$2$K+3$4$5$6$B@7$8$  ",
"      9$0$a$b$c$d$e$f$g$h$i$j$k$l$m$n$o$J.p$q$r$s$t$u$v$w$x$y$  ",
"      z$A$B$C$D$E$F$G$H$I$J$K$L$M$N$O$P$Q$R$S$T$U$V$W$X$Y$Z$`$  ",
"       %.%+%@%#%$%%%&%*%>+=%-%;%>%;+,%'%)%!%~%{%]%^%/%(%_%:%<%  ",
"[%    }%|%1%2%3%4%5%6%y@7%8%9%0%a%b%c%d%e%f%g%h%i%j%k%l%m%n%o%  ",
"    p%q%r%s%t%u%v%w%x%y%z%A%B%C%D%E%F%G%H%I%J%K%L%M%N%O%P%Q%R%  ",
"      S%T%U%V%W%X%Y%Z%`% &.&+&@&#&$&$&%&&&*&=&-&;&+%>&,&'&)&    ",
"      !&~&{&]&^&/&(&_&:&<&[&}&|&1&2&3&4&5&6&7&8&9&0&a&b&c&d&    ",
"          e&f&g&h&i&j&k&l&m&n&o&p&q&r&s&t&u&v&w&x&y&z&A&B&      ",
"              C&D&E&F&G&H&I&J&K&L&M&N&O&P&Q&R&S&T&U&V&W&        ",
"                        X&Y&Z&                                  ",
"    `& * *                                                      "};
